<svg width="48.000000" height="48.000000" viewBox="0 0 48 48" fill="none" xmlns="http://www.w3.org/2000/svg" xmlns:xlink="http://www.w3.org/1999/xlink">
	<desc>
			Created with Pixso.
	</desc>
	<defs/>
	<circle id="Ellipse 168" cx="24.000000" cy="24.000000" r="24.000000" fill="#FFB577" fill-opacity="0.070000"/>
	<path id="Vector" d="M31.71 28.76L29.26 26.84C29.43 26.11 29.27 25.41 28.78 24.81C27.8 23.6 27.59 22.17 27.36 20.65C27.03 18.46 26.66 15.98 23.91 13.81C22.38 12.6 20.82 12 19.26 12C16.38 12 14.57 14.04 14.5 14.12C14.38 14.25 11.54 17.46 12.06 21.28C12.38 23.61 13.87 25.63 16.49 27.29L16.54 27.32C16.75 27.42 21.74 29.89 23.23 30.35C23.9 30.56 24.45 30.66 24.96 30.66C25.41 30.66 25.82 30.58 26.2 30.43L28.95 32.16C28.84 32.99 28.8 34.81 30.34 35.66C30.74 35.88 31.19 35.99 31.64 36C32.29 36 32.93 35.76 33.43 35.31C34.04 34.75 34.32 33.98 34.22 33.2C34.71 33.08 35.33 32.82 35.7 32.26C35.94 31.9 36.16 31.26 35.82 30.31C35.11 28.37 32.97 28.41 31.71 28.76ZM27.06 28.11L27 28.2C26.3 29.37 25.5 29.5 24.96 29.5C24.57 29.5 24.12 29.42 23.57 29.25C22.22 28.83 17.48 26.49 17.08 26.29C14.78 24.83 13.47 23.1 13.2 21.13C12.75 17.85 15.33 14.93 15.36 14.89C15.38 14.88 16.92 13.16 19.26 13.16C20.56 13.16 21.88 13.68 23.19 14.72C25.59 16.61 25.89 18.66 26.22 20.83C26.46 22.43 26.71 24.09 27.88 25.54C28.12 25.83 28.37 26.3 27.95 27.08C27.64 27.64 27.14 28.05 27.14 28.05L27.06 28.11ZM34.74 31.61C34.48 32.01 33.72 32.13 33.48 32.14C33.39 32.15 33.3 32.17 33.21 32.22C33.13 32.27 33.07 32.33 33.02 32.41C32.97 32.49 32.94 32.58 32.93 32.68C32.92 32.77 32.93 32.86 32.97 32.95C33.3 33.74 32.86 34.26 32.66 34.44C32.26 34.81 31.56 35.01 30.9 34.64C29.69 33.98 30.14 32.04 30.15 32.02C30.18 31.9 30.17 31.78 30.13 31.66C30.08 31.55 30 31.45 29.9 31.39L27.26 29.73C27.52 29.48 27.75 29.19 27.94 28.89C28.26 28.6 28.54 28.28 28.78 27.93L31.23 29.86C31.31 29.92 31.4 29.96 31.49 29.98C31.59 29.99 31.68 29.98 31.78 29.95C31.87 29.92 34.17 29.14 34.73 30.71C34.88 31.1 34.88 31.41 34.74 31.61Z" fill="#FFB577" fill-opacity="1.000000" fill-rule="nonzero"/>
	<path id="Vector" d="M29.26 26.84C29.43 26.11 29.27 25.41 28.78 24.81C27.8 23.6 27.59 22.17 27.36 20.65C27.03 18.46 26.66 15.98 23.91 13.81C22.38 12.6 20.82 12 19.26 12C16.38 12 14.57 14.04 14.5 14.12C14.38 14.25 11.54 17.46 12.06 21.28C12.38 23.61 13.87 25.63 16.49 27.29L16.54 27.32C16.75 27.42 21.74 29.89 23.23 30.35C23.9 30.56 24.45 30.66 24.96 30.66C25.41 30.66 25.82 30.58 26.2 30.43L28.95 32.16C28.84 32.99 28.8 34.81 30.34 35.66C30.74 35.88 31.19 35.99 31.64 36C32.29 36 32.93 35.76 33.43 35.31C34.04 34.75 34.32 33.98 34.22 33.2C34.71 33.08 35.33 32.82 35.7 32.26C35.94 31.9 36.16 31.26 35.82 30.31C35.11 28.37 32.97 28.41 31.71 28.76L29.26 26.84ZM31.82 28.21Q33.91 27.7 35.11 28.51Q35.89 29.04 36.29 30.14Q36.65 31.14 36.4 31.95Q36.3 32.26 36.11 32.54Q36.04 32.65 35.96 32.75Q35.51 33.29 34.74 33.56Q34.74 34.05 34.59 34.48Q34.36 35.14 33.77 35.68Q33.32 36.08 32.8 36.28Q32.26 36.5 31.64 36.5Q31.23 36.49 30.85 36.4Q30.46 36.3 30.1 36.1Q29.44 35.74 29.04 35.18Q28.27 34.14 28.42 32.42L26.14 30.98L26.14 30.98Q25.58 31.16 24.96 31.16Q24.14 31.16 23.08 30.83Q21.43 30.32 16.32 27.76L16.31 27.76L16.23 27.72L16.22 27.71Q12.75 25.52 11.83 22.53Q11.65 21.96 11.56 21.35Q11.38 20.03 11.59 18.77Q12.02 16.14 14.13 13.79Q15.03 12.75 16.16 12.18Q17.54 11.5 19.26 11.5Q19.43 11.5 19.6 11.5Q21.95 11.63 24.21 13.41Q24.33 13.5 24.43 13.59Q27.15 15.9 27.85 20.58Q28.28 23.39 29.17 24.5Q29.63 25.07 29.77 25.72Q29.87 26.16 29.81 26.63L31.82 28.21ZM27.06 28.11L27 28.2C26.3 29.37 25.5 29.5 24.96 29.5C24.57 29.5 24.12 29.42 23.57 29.25C22.22 28.83 17.48 26.49 17.08 26.29C14.78 24.83 13.47 23.1 13.2 21.13C12.75 17.85 15.33 14.93 15.36 14.89C15.38 14.88 16.92 13.16 19.26 13.16C20.56 13.16 21.88 13.68 23.19 14.72C25.59 16.61 25.89 18.66 26.22 20.83C26.46 22.43 26.71 24.09 27.88 25.54C28.12 25.83 28.37 26.3 27.95 27.08C27.64 27.64 27.14 28.05 27.14 28.05L27.06 28.11ZM26.82 27.66L26.68 27.78L26.58 27.94L26.58 27.94Q26.11 28.71 25.47 28.92Q25.23 29 24.96 29Q24.46 29 23.72 28.77Q22.41 28.36 17.32 25.85Q14.33 23.95 13.78 21.49Q13.73 21.28 13.7 21.06Q13.57 20.14 13.7 19.25Q14 17.14 15.73 15.23Q16.4 14.47 17.25 14.08Q18.15 13.66 19.26 13.66Q21.04 13.66 22.88 15.11Q25.12 16.88 25.73 20.9L25.73 20.9L25.73 20.9Q26.23 24.3 27.5 25.86Q27.6 25.99 27.64 26.14Q27.72 26.45 27.51 26.84Q27.26 27.29 26.82 27.66ZM33.46 31.64L33.46 31.65Q33.33 31.65 33.21 31.69Q33.08 31.72 32.96 31.79Q32.85 31.85 32.76 31.94Q32.66 32.03 32.59 32.15Q32.52 32.26 32.48 32.38Q32.44 32.5 32.43 32.63Q32.42 32.77 32.44 32.89Q32.46 33.02 32.51 33.14Q32.64 33.45 32.57 33.7Q32.51 33.9 32.32 34.07Q32.06 34.31 31.77 34.35Q31.47 34.39 31.14 34.2Q30.94 34.09 30.8 33.93Q30.33 33.36 30.63 32.14Q30.68 31.97 30.67 31.8Q30.65 31.64 30.59 31.48Q30.52 31.31 30.42 31.18Q30.31 31.06 30.16 30.97L28.03 29.62Q28.19 29.42 28.33 29.21Q28.55 29.01 28.75 28.79Q28.81 28.71 28.87 28.64L30.92 30.25Q31.04 30.35 31.18 30.4Q31.29 30.45 31.41 30.47Q31.54 30.49 31.68 30.48Q31.81 30.47 31.94 30.43Q33.35 29.92 33.95 30.41Q34.16 30.58 34.26 30.88Q34.39 31.23 34.33 31.34Q34.14 31.61 33.46 31.64L33.46 31.64ZM28.48 28.33C28.58 28.2 28.68 28.07 28.78 27.93L29.17 28.24L31.23 29.86C31.31 29.92 31.4 29.96 31.49 29.98C31.59 29.99 31.68 29.98 31.78 29.95C31.87 29.92 34.17 29.14 34.73 30.71C34.88 31.1 34.88 31.41 34.74 31.61C34.48 32.01 33.72 32.13 33.48 32.14C33.39 32.15 33.3 32.17 33.21 32.22C33.13 32.27 33.07 32.33 33.02 32.41C32.97 32.49 32.94 32.58 32.93 32.68C32.92 32.77 32.93 32.86 32.97 32.95C33.3 33.74 32.86 34.26 32.66 34.44C32.26 34.81 31.56 35.01 30.9 34.64C29.69 33.98 30.14 32.04 30.15 32.02C30.18 31.9 30.17 31.78 30.13 31.66C30.08 31.55 30 31.45 29.9 31.39L27.7 30L27.26 29.73C27.39 29.61 27.5 29.48 27.61 29.35C27.73 29.2 27.84 29.05 27.94 28.89C28.13 28.71 28.31 28.53 28.48 28.33Z" fill="#FFB577" fill-opacity="1.000000" fill-rule="evenodd"/>
</svg>
