<svg width="60.000000" height="59.999878" viewBox="0 0 60 59.9999" fill="none" xmlns="http://www.w3.org/2000/svg" xmlns:xlink="http://www.w3.org/1999/xlink">
	<desc>
			Created with Pixso.
	</desc>
	<defs/>
	<path id="Play" d="M30 59.99C13.43 59.99 0 46.56 0 30C0 13.43 13.43 0 30 0C46.56 0 60 13.43 60 30C59.98 46.56 46.56 59.98 30 59.99ZM42.63 29.04C42.42 28.62 42.08 28.28 41.67 28.08L41.67 28.07L24.52 19.49C23.47 18.97 22.18 19.4 21.65 20.45C21.5 20.75 21.42 21.09 21.42 21.42L21.42 38.57C21.42 39.75 22.38 40.71 23.57 40.71C23.9 40.71 24.23 40.63 24.52 40.48L41.67 31.91C42.73 31.38 43.16 30.1 42.63 29.04Z" fill="#FFFFFF" fill-opacity="1.000000" fill-rule="nonzero"/>
</svg>
