<svg width="48.000000" height="48.000000" viewBox="0 0 48 48" fill="none" xmlns="http://www.w3.org/2000/svg" xmlns:xlink="http://www.w3.org/1999/xlink">
	<desc>
			Created with Pixso.
	</desc>
	<defs/>
	<circle id="Ellipse 168" cx="24.000000" cy="24.000000" r="24.000000" fill="#FFB577" fill-opacity="0.070000"/>
	<path id="Vector" d="M31 18.14C31.02 18 31.01 17.85 30.97 17.71C30.93 17.58 30.86 17.45 30.77 17.34C30.67 17.23 30.55 17.14 30.42 17.08C30.29 17.03 30.14 17 30 17L30 15C30 14.73 29.89 14.48 29.7 14.29C29.52 14.1 29.26 14 29 14L27 14L27 13.41L27.71 12.71C27.89 12.52 28 12.27 28 12C28 11.73 27.89 11.48 27.71 11.29C27.52 11.1 27.26 11 27 11C26.73 11 26.47 11.1 26.29 11.29L25.29 12.29C25.19 12.38 25.12 12.49 25.07 12.62C25.02 12.74 25 12.87 25 13L25 14L18 14C17.73 14 17.48 14.1 17.29 14.29C17.1 14.48 17 14.73 17 15L17 17C16.85 17 16.71 17.03 16.58 17.09C16.45 17.14 16.33 17.23 16.24 17.34C16.14 17.45 16.07 17.58 16.03 17.71C15.99 17.85 15.98 18 16.01 18.14L18.01 32.07L18.01 35C18.01 35.26 18.11 35.52 18.3 35.71C18.49 35.89 18.74 36 19.01 36L28.01 36C28.27 36 28.53 35.89 28.71 35.71C28.9 35.52 29.01 35.26 29.01 35L29.01 32.07L31 18.14ZM18.15 19L28.85 19L27.13 31L19.87 31L18.15 19ZM19 16L28 16L28 17L19 17L19 16ZM27 34L20 34L20 33L27 33L27 34Z" fill="#FFB577" fill-opacity="1.000000" fill-rule="nonzero"/>
</svg>
