<svg width="14.444336" height="14.444336" viewBox="0 0 14.4443 14.4443" fill="none" xmlns="http://www.w3.org/2000/svg" xmlns:xlink="http://www.w3.org/1999/xlink">
	<desc>
			Created with Pixso.
	</desc>
	<defs>
		<clipPath id="clip0_633">
			<rect id="Facebook / Negative" width="14.444445" height="14.444445" fill="white" fill-opacity="0"/>
		</clipPath>
	</defs>
	<rect id="Facebook / Negative" width="14.444445" height="14.444445" fill="#FFFFFF" fill-opacity="0"/>
	<g clip-path="url(#clip0_633)">
		<path id="Vector" d="M14.44 7.22C14.44 3.23 11.21 0 7.22 0C3.23 0 0 3.23 0 7.22C0 10.82 2.64 13.81 6.09 14.35L6.09 9.3L4.25 9.3L4.25 7.22L6.09 7.22L6.09 5.63C6.09 3.82 7.17 2.82 8.82 2.82C9.61 2.82 10.43 2.96 10.43 2.96L10.43 4.73L9.52 4.73C8.63 4.73 8.35 5.29 8.35 5.86L8.35 7.22L10.35 7.22L10.03 9.3L8.35 9.3L8.35 14.35C11.8 13.81 14.44 10.82 14.44 7.22Z" fill="#FFFFFF" fill-opacity="1.000000" fill-rule="nonzero"/>
	</g>
</svg>
