<svg width="20.000000" height="25.000000" viewBox="0 0 20 25" fill="none" xmlns="http://www.w3.org/2000/svg" xmlns:xlink="http://www.w3.org/1999/xlink">
	<desc>
			Created with Pixso.
	</desc>
	<defs/>
	<path id="Vector" d="M19.2 11.66L16.79 11.66L16.79 4.86C16.8 4.75 16.77 4.64 16.73 4.54C16.69 4.44 16.64 4.35 16.56 4.27C16.49 4.19 16.4 4.13 16.3 4.09C16.2 4.05 16.1 4.03 16 4.03L15.6 4.03L15.6 0.83C15.6 0.61 15.51 0.4 15.36 0.24C15.21 0.08 15.01 0 14.79 0C14.58 0 14.38 0.08 14.23 0.24C14.08 0.4 14 0.61 14 0.83L14 4.03L12.39 4.03L12.39 0.83C12.39 0.61 12.31 0.4 12.16 0.24C12.01 0.08 11.81 0 11.6 0C11.38 0 11.18 0.08 11.03 0.24C10.88 0.4 10.79 0.61 10.79 0.83L10.79 4.03L9.2 4.03L9.2 0.83C9.2 0.61 9.11 0.4 8.96 0.24C8.81 0.08 8.61 0 8.39 0C8.18 0 7.98 0.08 7.83 0.24C7.68 0.4 7.6 0.61 7.6 0.83L7.6 4.03L6 4.03L6 0.83C6 0.61 5.91 0.4 5.76 0.24C5.61 0.08 5.41 0 5.2 0C4.98 0 4.78 0.08 4.63 0.24C4.48 0.4 4.39 0.61 4.39 0.83L4.39 4.03L4 4.03C3.89 4.03 3.79 4.05 3.69 4.09C3.59 4.13 3.5 4.19 3.43 4.27C3.35 4.35 3.3 4.44 3.26 4.54C3.22 4.64 3.19 4.75 3.2 4.86L3.2 11.66L0.79 11.66C0.58 11.66 0.38 11.75 0.23 11.91C0.08 12.06 0 12.27 0 12.5L0 24.16C-0.01 24.27 0.02 24.38 0.06 24.48C0.1 24.58 0.15 24.67 0.23 24.75C0.3 24.83 0.39 24.89 0.49 24.93C0.59 24.97 0.69 25 0.79 25L19.2 25C19.3 25 19.4 24.97 19.5 24.93C19.6 24.89 19.69 24.83 19.76 24.75C19.84 24.67 19.89 24.58 19.93 24.48C19.98 24.38 20 24.27 20 24.16L20 12.5C19.99 12.27 19.91 12.06 19.76 11.91C19.61 11.75 19.41 11.66 19.2 11.66ZM4.79 5.69L15.2 5.69L15.2 11.66L4.79 11.66L4.79 5.69ZM1.6 13.33L18.39 13.33L18.39 15.13C17.88 15.32 17.43 15.65 17.08 16.09C16.72 16.49 16.53 16.66 16.12 16.66C15.72 16.66 15.54 16.49 15.16 16.09C14.92 15.75 14.6 15.47 14.23 15.28C13.87 15.09 13.46 15 13.06 15C12.65 15 12.24 15.09 11.88 15.28C11.51 15.47 11.19 15.75 10.95 16.09C10.58 16.49 10.39 16.66 9.99 16.66C9.58 16.66 9.4 16.49 9.04 16.09C8.79 15.75 8.47 15.47 8.1 15.28C7.74 15.09 7.33 14.99 6.92 14.99C6.51 14.99 6.11 15.09 5.74 15.28C5.38 15.47 5.06 15.75 4.81 16.09C4.44 16.49 4.27 16.66 3.86 16.66C3.45 16.66 3.27 16.49 2.91 16.09C2.56 15.65 2.11 15.32 1.6 15.13L1.6 13.33ZM18.39 23.33L1.6 23.33L1.6 17.08C1.64 17.12 1.69 17.18 1.75 17.24C1.99 17.58 2.31 17.85 2.68 18.04C3.05 18.23 3.45 18.33 3.86 18.33C4.27 18.33 4.67 18.23 5.04 18.04C5.4 17.85 5.72 17.58 5.97 17.24C6.34 16.85 6.52 16.66 6.92 16.66C7.33 16.66 7.52 16.85 7.87 17.25C8.12 17.58 8.44 17.86 8.81 18.04C9.18 18.23 9.58 18.33 9.99 18.33C10.4 18.33 10.8 18.23 11.16 18.04C11.53 17.86 11.85 17.58 12.1 17.25C12.47 16.85 12.64 16.66 13.05 16.66C13.47 16.66 13.64 16.85 14.01 17.25C14.26 17.58 14.58 17.86 14.95 18.04C15.31 18.23 15.71 18.33 16.12 18.33C16.53 18.33 16.93 18.23 17.3 18.04C17.67 17.86 17.99 17.58 18.24 17.25C18.29 17.18 18.35 17.12 18.39 17.07L18.39 23.33Z" fill="#FFB577" fill-opacity="1.000000" fill-rule="evenodd"/>
</svg>
