<svg width="14.444336" height="14.444336" viewBox="0 0 14.4443 14.4443" fill="none" xmlns="http://www.w3.org/2000/svg" xmlns:xlink="http://www.w3.org/1999/xlink">
	<desc>
			Created with Pixso.
	</desc>
	<defs>
		<clipPath id="clip0_635">
			<rect id="Twitter / Negative" width="14.444445" height="14.444445" fill="white" fill-opacity="0"/>
		</clipPath>
	</defs>
	<rect id="Twitter / Negative" width="14.444445" height="14.444445" fill="#FFFFFF" fill-opacity="0"/>
	<g clip-path="url(#clip0_635)">
		<path id="Vector" d="M4.54 13.09C9.99 13.09 12.97 8.57 12.97 4.65C12.97 4.53 12.97 4.4 12.96 4.27C13.54 3.85 14.04 3.33 14.44 2.74C13.9 2.98 13.33 3.13 12.74 3.2C13.36 2.83 13.82 2.25 14.04 1.56C13.46 1.91 12.82 2.15 12.16 2.28C11.71 1.81 11.12 1.49 10.48 1.39C9.84 1.28 9.18 1.39 8.6 1.7C8.03 2.01 7.57 2.5 7.3 3.09C7.03 3.68 6.96 4.35 7.11 4.98C5.93 4.93 4.78 4.62 3.73 4.09C2.67 3.55 1.75 2.81 1 1.89C0.62 2.54 0.51 3.31 0.68 4.05C0.85 4.78 1.29 5.43 1.92 5.85C1.45 5.83 0.99 5.7 0.58 5.48L0.58 5.51C0.58 6.2 0.81 6.86 1.25 7.39C1.68 7.92 2.28 8.28 2.95 8.42C2.52 8.54 2.06 8.55 1.62 8.47C1.81 9.06 2.17 9.57 2.67 9.94C3.17 10.31 3.77 10.52 4.38 10.53C3.33 11.35 2.04 11.8 0.7 11.8C0.47 11.8 0.23 11.78 0 11.75C1.35 12.62 2.93 13.09 4.54 13.09Z" fill="#FFFFFF" fill-opacity="1.000000" fill-rule="nonzero"/>
	</g>
</svg>
