<?xml version="1.0" encoding="utf-8"?><svg xmlns="http://www.w3.org/2000/svg" xmlns:xlink="http://www.w3.org/1999/xlink"><symbol viewBox="0 0 14.4443 14.4443" id="facebook" xmlns="http://www.w3.org/2000/svg">
    <desc>
        Created with Pixso.
    </desc>
    <defs>
        <clipPath id="aclip0_633">
            <rect id="aFacebook / Negative" width="14.444445" height="14.444445" fill-opacity="0"/>
        </clipPath>
    </defs>
    <rect id="aFacebook / Negative" width="14.444445" height="14.444445" fill-opacity="0"/>
    <g clip-path="url(#aclip0_633)">
        <path id="aVector" d="M14.44 7.22C14.44 3.23 11.21 0 7.22 0C3.23 0 0 3.23 0 7.22C0 10.82 2.64 13.81 6.09 14.35L6.09 9.3L4.25 9.3L4.25 7.22L6.09 7.22L6.09 5.63C6.09 3.82 7.17 2.82 8.82 2.82C9.61 2.82 10.43 2.96 10.43 2.96L10.43 4.73L9.52 4.73C8.63 4.73 8.35 5.29 8.35 5.86L8.35 7.22L10.35 7.22L10.03 9.3L8.35 9.3L8.35 14.35C11.8 13.81 14.44 10.82 14.44 7.22Z" fill-opacity="1.000000" fill-rule="nonzero"/>
    </g>
</symbol><symbol viewBox="0 0 14.4443 14.4443" id="instagram" xmlns="http://www.w3.org/2000/svg">
    <desc>
        Created with Pixso.
    </desc>
    <defs>
        <clipPath id="bclip0_637">
            <rect id="bInstagram / Negative" width="14.444445" height="14.444445" fill-opacity="0"/>
        </clipPath>
    </defs>
    <rect id="bInstagram / Negative" width="14.444445" height="14.444445" fill-opacity="0"/>
    <g clip-path="url(#bclip0_637)">
        <path id="bVector" d="M7.22 1.3C9.15 1.3 9.38 1.3 10.13 1.34C10.84 1.37 11.22 1.49 11.47 1.59C11.81 1.72 12.05 1.87 12.3 2.12C12.56 2.38 12.71 2.62 12.84 2.95C12.94 3.21 13.06 3.59 13.09 4.29C13.12 5.06 13.13 5.28 13.13 7.21C13.13 9.14 13.12 9.37 13.09 10.13C13.06 10.83 12.94 11.21 12.84 11.47C12.71 11.8 12.56 12.05 12.3 12.3C12.05 12.55 11.81 12.71 11.47 12.84C11.22 12.94 10.84 13.05 10.13 13.09C9.37 13.12 9.14 13.13 7.22 13.13C5.29 13.13 5.06 13.12 4.3 13.09C3.59 13.05 3.21 12.94 2.96 12.84C2.62 12.71 2.38 12.55 2.13 12.3C1.88 12.04 1.72 11.8 1.59 11.47C1.49 11.21 1.37 10.83 1.34 10.13C1.31 9.37 1.3 9.14 1.3 7.21C1.3 5.28 1.31 5.05 1.34 4.29C1.37 3.59 1.49 3.21 1.59 2.95C1.72 2.62 1.88 2.38 2.13 2.12C2.38 1.87 2.62 1.72 2.96 1.59C3.21 1.49 3.6 1.37 4.3 1.34C5.06 1.3 5.29 1.3 7.22 1.3ZM7.22 0C5.26 0 5.01 0 4.24 0.04C3.47 0.07 2.95 0.2 2.49 0.37C2.01 0.56 1.61 0.8 1.21 1.21C0.8 1.61 0.56 2.01 0.37 2.49C0.2 2.95 0.07 3.47 0.04 4.24C0 5.01 0 5.26 0 7.22C0 9.18 0 9.42 0.04 10.19C0.07 10.96 0.2 11.49 0.37 11.95C0.56 12.42 0.8 12.83 1.21 13.23C1.61 13.63 2.01 13.88 2.49 14.06C2.95 14.24 3.47 14.36 4.24 14.39C5.01 14.43 5.25 14.44 7.21 14.44C9.18 14.44 9.42 14.43 10.19 14.39C10.96 14.36 11.49 14.24 11.94 14.06C12.42 13.88 12.82 13.63 13.22 13.23C13.62 12.83 13.87 12.42 14.05 11.95C14.23 11.49 14.35 10.96 14.39 10.2C14.42 9.43 14.43 9.18 14.43 7.22C14.43 5.26 14.42 5.01 14.39 4.24C14.35 3.48 14.23 2.95 14.05 2.49C13.88 2.01 13.63 1.61 13.23 1.21C12.83 0.81 12.42 0.56 11.95 0.38C11.49 0.2 10.96 0.07 10.2 0.04C9.42 0 9.18 0 7.22 0Z" fill-opacity="1.000000" fill-rule="nonzero"/>
        <path id="bVector" d="M7.22 3.51C5.17 3.51 3.51 5.17 3.51 7.22C3.51 9.27 5.17 10.93 7.22 10.93C9.27 10.93 10.93 9.27 10.93 7.22C10.93 5.17 9.27 3.51 7.22 3.51ZM7.22 9.62C5.89 9.62 4.81 8.55 4.81 7.22C4.81 5.89 5.89 4.81 7.22 4.81C8.55 4.81 9.62 5.89 9.62 7.22C9.62 8.55 8.55 9.62 7.22 9.62Z" fill-opacity="1.000000" fill-rule="nonzero"/>
        <path id="bVector" d="M11.94 3.36C11.94 3.84 11.55 4.23 11.07 4.23C10.59 4.23 10.21 3.84 10.21 3.36C10.21 2.88 10.6 2.49 11.07 2.49C11.55 2.49 11.94 2.88 11.94 3.36Z" fill-opacity="1.000000" fill-rule="nonzero"/>
    </g>
</symbol><symbol viewBox="0 0 14.4443 14.4443" id="linkedIn" xmlns="http://www.w3.org/2000/svg">
    <desc>
        Created with Pixso.
    </desc>
    <defs>
        <clipPath id="cclip0_642">
            <rect id="cLinkedIn / Negative" width="14.444445" height="14.444445" fill-opacity="0"/>
        </clipPath>
    </defs>
    <rect id="cLinkedIn / Negative" width="14.444445" height="14.444445" fill-opacity="0"/>
    <g clip-path="url(#cclip0_642)">
        <path id="cVector" d="M13.37 0L1.06 0C0.47 0 0 0.46 0 1.04L0 13.4C0 13.97 0.47 14.44 1.06 14.44L13.37 14.44C13.96 14.44 14.44 13.97 14.44 13.4L14.44 1.04C14.44 0.46 13.96 0 13.37 0ZM4.28 12.3L2.14 12.3L2.14 5.41L4.28 5.41L4.28 12.3ZM3.21 4.47C2.52 4.47 1.96 3.91 1.96 3.23C1.96 2.54 2.52 1.99 3.21 1.99C3.89 1.99 4.45 2.54 4.45 3.23C4.45 3.91 3.89 4.47 3.21 4.47ZM12.3 12.3L10.16 12.3L10.16 8.95C10.16 8.15 10.15 7.12 9.05 7.12C7.93 7.12 7.76 8 7.76 8.9L7.76 12.3L5.63 12.3L5.63 5.41L7.68 5.41L7.68 6.35L7.71 6.35C7.99 5.81 8.69 5.24 9.73 5.24C11.9 5.24 12.3 6.66 12.3 8.52L12.3 12.3Z" fill-opacity="1.000000" fill-rule="nonzero"/>
    </g>
</symbol><symbol viewBox="0 0 14.4443 14.4443" id="twitter" xmlns="http://www.w3.org/2000/svg">
    <desc>
        Created with Pixso.
    </desc>
    <defs>
        <clipPath id="dclip0_635">
            <rect id="dTwitter / Negative" width="14.444445" height="14.444445" fill-opacity="0"/>
        </clipPath>
    </defs>
    <rect id="dTwitter / Negative" width="14.444445" height="14.444445" fill-opacity="0"/>
    <g clip-path="url(#dclip0_635)">
        <path id="dVector" d="M4.54 13.09C9.99 13.09 12.97 8.57 12.97 4.65C12.97 4.53 12.97 4.4 12.96 4.27C13.54 3.85 14.04 3.33 14.44 2.74C13.9 2.98 13.33 3.13 12.74 3.2C13.36 2.83 13.82 2.25 14.04 1.56C13.46 1.91 12.82 2.15 12.16 2.28C11.71 1.81 11.12 1.49 10.48 1.39C9.84 1.28 9.18 1.39 8.6 1.7C8.03 2.01 7.57 2.5 7.3 3.09C7.03 3.68 6.96 4.35 7.11 4.98C5.93 4.93 4.78 4.62 3.73 4.09C2.67 3.55 1.75 2.81 1 1.89C0.62 2.54 0.51 3.31 0.68 4.05C0.85 4.78 1.29 5.43 1.92 5.85C1.45 5.83 0.99 5.7 0.58 5.48L0.58 5.51C0.58 6.2 0.81 6.86 1.25 7.39C1.68 7.92 2.28 8.28 2.95 8.42C2.52 8.54 2.06 8.55 1.62 8.47C1.81 9.06 2.17 9.57 2.67 9.94C3.17 10.31 3.77 10.52 4.38 10.53C3.33 11.35 2.04 11.8 0.7 11.8C0.47 11.8 0.23 11.78 0 11.75C1.35 12.62 2.93 13.09 4.54 13.09Z" fill-opacity="1.000000" fill-rule="nonzero"/>
    </g>
</symbol></svg>