<?xml version="1.0" encoding="utf-8"?><svg viewBox="0 0 20 25" xmlns="http://www.w3.org/2000/svg" xmlns:xlink="http://www.w3.org/1999/xlink"><style>:root>svg{display:none}:root>svg:target{display:block}</style><svg fill="none" viewBox="0 0 14.444 14.444" id="facebook" xmlns="http://www.w3.org/2000/svg"><defs><clipPath id="aa"><path fill="#fff" fill-opacity="0" d="M0 0h14.444v14.444H0z"/></clipPath></defs><path fill="none" d="M0 0h14.444v14.444H0z"/><g clip-path="url(#aa)"><path d="M14.44 7.22C14.44 3.23 11.21 0 7.22 0 3.23 0 0 3.23 0 7.22c0 3.6 2.64 6.59 6.09 7.13V9.3H4.25V7.22h1.84V5.63c0-1.81 1.08-2.81 2.73-2.81.79 0 1.61.14 1.61.14v1.77h-.91c-.89 0-1.17.56-1.17 1.13v1.36h2l-.32 2.08H8.35v5.05a7.22 7.22 0 0 0 6.09-7.13Z" fill="#FFF"/></g></svg><svg fill="none" viewBox="0 0 14.444 14.444" id="instagram" xmlns="http://www.w3.org/2000/svg"><defs><clipPath id="ba"><path fill="#fff" fill-opacity="0" d="M0 0h14.444v14.444H0z"/></clipPath></defs><path fill="none" d="M0 0h14.444v14.444H0z"/><g clip-path="url(#ba)" fill="#FFF"><path d="M7.22 1.3c1.93 0 2.16 0 2.91.04.71.03 1.09.15 1.34.25.34.13.58.28.83.53.26.26.41.5.54.83.1.26.22.64.25 1.34.03.77.04.99.04 2.92s-.01 2.16-.04 2.92c-.03.7-.15 1.08-.25 1.34-.13.33-.28.58-.54.83-.25.25-.49.41-.83.54-.25.1-.63.21-1.34.25-.76.03-.99.04-2.91.04-1.93 0-2.16-.01-2.92-.04-.71-.04-1.09-.15-1.34-.25-.34-.13-.58-.29-.83-.54-.25-.26-.41-.5-.54-.83-.1-.26-.22-.64-.25-1.34-.03-.76-.04-.99-.04-2.92s.01-2.16.04-2.92c.03-.7.15-1.08.25-1.34.13-.33.29-.57.54-.83.25-.25.49-.4.83-.53.25-.1.64-.22 1.34-.25.76-.04.99-.04 2.92-.04Zm0-1.3C5.26 0 5.01 0 4.24.04 3.47.07 2.95.2 2.49.37c-.48.19-.88.43-1.28.84-.41.4-.65.8-.84 1.28-.17.46-.3.98-.33 1.75C0 5.01 0 5.26 0 7.22s0 2.2.04 2.97c.03.77.16 1.3.33 1.76.19.47.43.88.84 1.28.4.4.8.65 1.28.83.46.18.98.3 1.75.33.77.04 1.01.05 2.97.05 1.97 0 2.21-.01 2.98-.05.77-.03 1.3-.15 1.75-.33.48-.18.88-.43 1.28-.83.4-.4.65-.81.83-1.28.18-.46.3-.99.34-1.75.03-.77.04-1.02.04-2.98s-.01-2.21-.04-2.98c-.04-.76-.16-1.29-.34-1.75-.17-.48-.42-.88-.82-1.28-.4-.4-.81-.65-1.28-.83-.46-.18-.99-.31-1.75-.34C9.42 0 9.18 0 7.22 0Z"/><path d="M7.22 3.51c-2.05 0-3.71 1.66-3.71 3.71s1.66 3.71 3.71 3.71 3.71-1.66 3.71-3.71-1.66-3.71-3.71-3.71Zm0 6.11c-1.33 0-2.41-1.07-2.41-2.4 0-1.33 1.08-2.41 2.41-2.41s2.4 1.08 2.4 2.41-1.07 2.4-2.4 2.4ZM11.94 3.36c0 .48-.39.87-.87.87s-.86-.39-.86-.87.39-.87.86-.87c.48 0 .87.39.87.87Z"/></g></svg><svg fill="none" viewBox="0 0 14.444 14.444" id="linkedIn" xmlns="http://www.w3.org/2000/svg"><defs><clipPath id="ca"><path fill="#fff" fill-opacity="0" d="M0 0h14.444v14.444H0z"/></clipPath></defs><path fill="none" d="M0 0h14.444v14.444H0z"/><g clip-path="url(#ca)"><path d="M13.37 0H1.06C.47 0 0 .46 0 1.04V13.4c0 .57.47 1.04 1.06 1.04h12.31c.59 0 1.07-.47 1.07-1.04V1.04c0-.58-.48-1.04-1.07-1.04ZM4.28 12.3H2.14V5.41h2.14v6.89ZM3.21 4.47c-.69 0-1.25-.56-1.25-1.24 0-.69.56-1.24 1.25-1.24a1.24 1.24 0 1 1 0 2.48Zm9.09 7.83h-2.14V8.95c0-.8-.01-1.83-1.11-1.83-1.12 0-1.29.88-1.29 1.78v3.4H5.63V5.41h2.05v.94h.03c.28-.54.98-1.11 2.02-1.11 2.17 0 2.57 1.42 2.57 3.28v3.78Z" fill="#FFF"/></g></svg><svg fill="none" viewBox="0 0 20 25" id="svg-tort" xmlns="http://www.w3.org/2000/svg"><path d="M19.2 11.66h-2.41v-6.8a.703.703 0 0 0-.06-.32.77.77 0 0 0-.17-.27.677.677 0 0 0-.26-.18c-.1-.04-.2-.06-.3-.06h-.4V.83c0-.22-.09-.43-.24-.59a.763.763 0 0 0-.57-.24c-.21 0-.41.08-.56.24-.15.16-.23.37-.23.59v3.2h-1.61V.83c0-.22-.08-.43-.23-.59A.757.757 0 0 0 11.6 0c-.22 0-.42.08-.57.24-.15.16-.24.37-.24.59v3.2H9.2V.83c0-.22-.09-.43-.24-.59A.763.763 0 0 0 8.39 0c-.21 0-.41.08-.56.24-.15.16-.23.37-.23.59v3.2H6V.83C6 .61 5.91.4 5.76.24A.757.757 0 0 0 5.2 0c-.22 0-.42.08-.57.24-.15.16-.24.37-.24.59v3.2H4c-.11 0-.21.02-.31.06-.1.04-.19.1-.26.18a.77.77 0 0 0-.17.27c-.04.1-.07.21-.06.32v6.8H.79c-.21 0-.41.09-.56.25-.15.15-.23.36-.23.59v11.66c-.01.11.02.22.06.32.04.1.09.19.17.27.07.08.16.14.26.18.1.04.2.07.3.07H19.2c.1 0 .2-.03.3-.07.1-.04.19-.1.26-.18a.77.77 0 0 0 .17-.27c.05-.1.07-.21.07-.32V12.5a.876.876 0 0 0-.24-.59.767.767 0 0 0-.56-.25ZM4.79 5.69H15.2v5.97H4.79V5.69ZM1.6 13.33h16.79v1.8c-.51.19-.96.52-1.31.96-.36.4-.55.57-.96.57-.4 0-.58-.17-.96-.57-.24-.34-.56-.62-.93-.81-.36-.19-.77-.28-1.17-.28-.41 0-.82.09-1.18.28-.37.19-.69.47-.93.81-.37.4-.56.57-.96.57-.41 0-.59-.17-.95-.57a2.71 2.71 0 0 0-.94-.81 2.542 2.542 0 0 0-2.36 0c-.36.19-.68.47-.93.81-.37.4-.54.57-.95.57-.41 0-.59-.17-.95-.57-.35-.44-.8-.77-1.31-.96v-1.8Zm16.79 10H1.6v-6.25c.04.04.09.1.15.16.24.34.56.61.93.8.37.19.77.29 1.18.29.41 0 .81-.1 1.18-.29.36-.19.68-.46.93-.8.37-.39.55-.58.95-.58.41 0 .6.19.95.59.25.33.57.61.94.79.37.19.77.29 1.18.29.41 0 .81-.1 1.17-.29.37-.18.69-.46.94-.79.37-.4.54-.59.95-.59.42 0 .59.19.96.59.25.33.57.61.94.79.36.19.76.29 1.17.29.41 0 .81-.1 1.18-.29.37-.18.69-.46.94-.79.05-.07.11-.13.15-.18v6.26Z" fill="#FFB577" fill-rule="evenodd"/></svg><svg fill="none" viewBox="0 0 14.444 14.444" id="twitter" xmlns="http://www.w3.org/2000/svg"><defs><clipPath id="ea"><path fill="#fff" fill-opacity="0" d="M0 0h14.444v14.444H0z"/></clipPath></defs><path fill="none" d="M0 0h14.444v14.444H0z"/><g clip-path="url(#ea)"><path d="M4.54 13.09c5.45 0 8.43-4.52 8.43-8.44 0-.12 0-.25-.01-.38.58-.42 1.08-.94 1.48-1.53-.54.24-1.11.39-1.7.46.62-.37 1.08-.95 1.3-1.64-.58.35-1.22.59-1.88.72-.45-.47-1.04-.79-1.68-.89-.64-.11-1.3 0-1.88.31-.57.31-1.03.8-1.3 1.39a2.93 2.93 0 0 0-.19 1.89 8.282 8.282 0 0 1-3.38-.89A8.448 8.448 0 0 1 1 1.89C.62 2.54.51 3.31.68 4.05c.17.73.61 1.38 1.24 1.8-.47-.02-.93-.15-1.34-.37v.03c0 .69.23 1.35.67 1.88.43.53 1.03.89 1.7 1.03-.43.12-.89.13-1.33.05a2.97 2.97 0 0 0 2.76 2.06A5.971 5.971 0 0 1 .7 11.8c-.23 0-.47-.02-.7-.05 1.35.87 2.93 1.34 4.54 1.34Z" fill="#FFF"/></g></svg></svg>