<svg width="96.000000" height="19.415771" viewBox="0 0 96 19.4158" fill="none" xmlns="http://www.w3.org/2000/svg" xmlns:xlink="http://www.w3.org/1999/xlink">
	<desc>
			Created with Pixso.
	</desc>
	<defs>
		<clipPath id="clip202_4">
			<rect width="96.000000" height="19.415730" fill="white" fill-opacity="0"/>
		</clipPath>
	</defs>
	<rect width="96.000000" height="19.415730" fill="#FFFFFF" fill-opacity="0"/>
	<g clip-path="url(#clip202_4)">
		<path d="M95.82 14.82L95.82 17.2L93.83 17.2C91.71 17.13 90.57 15.98 90.57 13.83L90.57 8.41L89.18 8.41L89.18 6.33L90.57 6.33L90.57 4L93.51 4L93.51 6.31L95.76 6.31L95.76 8.38L93.51 8.38L93.51 13.54C93.51 14.24 93.65 14.79 94.73 14.79L95.82 14.82Z" fill="#FFB577" fill-opacity="1.000000" fill-rule="nonzero"/>
		<path d="M77.46 11.78L77.46 11.63C77.43 10.93 77.53 10.23 77.77 9.57C78.01 8.92 78.38 8.31 78.85 7.8C79.32 7.28 79.89 6.87 80.52 6.57C81.16 6.28 81.84 6.11 82.54 6.08C82.68 6.08 82.83 6.08 82.97 6.08C85.75 6.08 88.18 7.69 88.18 11.54L88.18 12.36L80.47 12.36C80.54 14.13 81.5 15.13 83.12 15.13C84.51 15.13 85.16 14.53 85.35 13.64L88.13 13.64C87.79 15.95 85.94 17.24 83.02 17.24C79.81 17.21 77.46 15.19 77.46 11.78ZM85.29 10.5C85.19 8.89 84.37 8.11 82.96 8.11C81.54 8.11 80.73 8.99 80.53 10.5L85.29 10.5Z" fill="#FFB577" fill-opacity="1.000000" fill-rule="nonzero"/>
		<path d="M65.45 11.78L65.45 11.63C65.42 10.93 65.53 10.23 65.76 9.58C66 8.92 66.37 8.32 66.84 7.8C67.31 7.29 67.88 6.87 68.51 6.58C69.14 6.28 69.83 6.11 70.52 6.08C70.66 6.08 70.81 6.08 70.95 6.08C73.73 6.08 76.17 7.69 76.17 11.54L76.17 12.36L68.46 12.36C68.54 14.13 69.5 15.13 71.11 15.13C72.51 15.13 73.16 14.53 73.34 13.64L76.12 13.64C75.77 15.95 73.93 17.24 71 17.24C67.8 17.21 65.45 15.19 65.45 11.78ZM73.28 10.5C73.18 8.89 72.37 8.11 70.95 8.11C69.53 8.11 68.74 9.01 68.52 10.5L73.28 10.5Z" fill="#FFB577" fill-opacity="1.000000" fill-rule="nonzero"/>
		<path d="M48.6 6.31L51.71 6.31L53.62 13.5L55.7 6.31L58.13 6.31L60.01 13.5L62.02 6.31L64.87 6.31L61.49 17L58.57 17L56.75 10.29L54.8 17L51.85 17L48.6 6.31Z" fill="#FFB577" fill-opacity="1.000000" fill-rule="nonzero"/>
		<path d="M38.72 13.63L41.49 13.63C41.62 14.6 42.1 15.15 43.38 15.15C44.52 15.15 45.05 14.72 45.05 13.99C45.05 13.25 44.44 12.94 42.89 12.72C40.04 12.29 38.94 11.47 38.94 9.39C38.94 7.16 40.98 6.06 43.19 6.06C45.56 6.06 47.36 6.92 47.61 9.38L44.87 9.38C44.85 9.19 44.8 9 44.71 8.83C44.62 8.66 44.5 8.51 44.35 8.39C44.2 8.27 44.03 8.18 43.85 8.13C43.67 8.07 43.48 8.05 43.29 8.07L43.2 8.07C42.24 8.07 41.68 8.52 41.68 9.17C41.68 9.83 42.19 10.12 43.76 10.34C46.42 10.74 47.91 11.41 47.91 13.7C47.91 15.99 46.23 17.21 43.41 17.21C40.59 17.21 38.8 15.95 38.72 13.63Z" fill="#FFB577" fill-opacity="1.000000" fill-rule="nonzero"/>
		<path d="M26.92 6.31L29.86 6.31L29.86 8C30.19 7.38 30.69 6.86 31.31 6.52C31.92 6.17 32.62 6.01 33.33 6.06C35.41 6.06 36.92 7.32 36.92 10.22L36.92 17.02L34.02 17.02L34.02 10.64C34.02 9.19 33.46 8.5 32.14 8.5C31.87 8.48 31.59 8.51 31.32 8.59C31.06 8.68 30.81 8.81 30.6 8.99C30.38 9.17 30.21 9.39 30.08 9.64C29.95 9.88 29.87 10.15 29.85 10.43C29.84 10.56 29.84 10.69 29.85 10.82L29.85 17L26.92 17L26.92 6.31Z" fill="#FFB577" fill-opacity="1.000000" fill-rule="nonzero"/>
		<path d="M21.24 3.62C21.23 3.32 21.31 3.04 21.46 2.79C21.62 2.54 21.84 2.34 22.11 2.22C22.38 2.1 22.67 2.06 22.96 2.1C23.25 2.15 23.52 2.28 23.74 2.48C23.95 2.68 24.1 2.94 24.17 3.22C24.23 3.51 24.22 3.81 24.11 4.08C24.01 4.36 23.83 4.6 23.59 4.77C23.35 4.94 23.07 5.03 22.77 5.04L22.72 5.04C22.54 5.05 22.35 5.03 22.18 4.97C22.01 4.91 21.85 4.82 21.71 4.7C21.58 4.58 21.47 4.43 21.39 4.27C21.31 4.1 21.26 3.93 21.25 3.74C21.24 3.7 21.24 3.66 21.24 3.62ZM21.24 6.31L24.21 6.31L24.21 17L21.25 17L21.24 6.31Z" fill="#FFB577" fill-opacity="1.000000" fill-rule="nonzero"/>
		<path d="M10.04 2.39L19.44 2.39L19.44 4.98L13.36 4.98L13.36 8.84L18.17 8.84L18.17 11.34L13.36 11.34L13.36 17L10.04 17L10.04 2.39Z" fill="#FFB577" fill-opacity="1.000000" fill-rule="nonzero"/>
		<path d="M4.38 7.17C4.38 8.08 4.38 9.2 3.11 9.65C4.41 10.1 4.38 11.04 4.38 12.02L4.38 15.66C4.38 16.35 4.66 16.77 5.15 16.87C5.26 16.91 5.38 16.93 5.49 16.92L6.71 16.92L6.71 19.35L4.7 19.35C2.57 19.35 1.39 18.14 1.39 15.89L1.39 11.58C1.37 11.36 1.27 11.15 1.11 11C0.95 10.84 0.74 10.76 0.52 10.75L0 10.75L0 8.62L0.52 8.62C0.74 8.62 0.96 8.53 1.12 8.37C1.28 8.21 1.38 8 1.39 7.77L1.39 3.4C1.39 1.19 2.54 0 4.7 0L6.73 0L6.73 2.39L5.51 2.39C5.4 2.39 5.28 2.4 5.17 2.44C4.67 2.57 4.39 2.98 4.39 3.65L4.38 7.17Z" fill="#FFB577" fill-opacity="1.000000" fill-rule="nonzero"/>
	</g>
</svg>
