<svg width="48.000000" height="48.000000" viewBox="0 0 48 48" fill="none" xmlns="http://www.w3.org/2000/svg" xmlns:xlink="http://www.w3.org/1999/xlink">
	<desc>
			Created with Pixso.
	</desc>
	<defs/>
	<circle id="Ellipse 168" cx="24.000000" cy="24.000000" r="24.000000" fill="#FFB577" fill-opacity="0.070000"/>
	<path id="Vector" d="M28.4 31.15L28.4 27.77C28.4 27.54 28.32 27.33 28.17 27.17C28.03 27.01 27.83 26.92 27.62 26.92L12.78 26.92C12.57 26.92 12.37 27.01 12.22 27.17C12.08 27.33 12 27.54 12 27.77L12 31.15C12 31.37 12.08 31.59 12.22 31.75C12.37 31.91 12.57 32 12.78 32L27.62 32C27.83 32 28.03 31.91 28.17 31.75C28.32 31.59 28.4 31.37 28.4 31.15ZM26.84 30.3L13.56 30.3L13.56 28.61L26.84 28.61L26.84 30.3ZM14.34 24.39C14.13 24.39 13.93 24.47 13.79 24.63C13.64 24.79 13.56 25.01 13.56 25.23C13.56 25.45 13.64 25.67 13.79 25.83C13.93 25.99 14.13 26.08 14.34 26.08L26.06 26.08C26.26 26.08 26.46 25.99 26.61 25.83C26.76 25.67 26.84 25.45 26.84 25.23C26.84 25.01 26.76 24.79 26.61 24.63C26.46 24.47 26.26 24.39 26.06 24.39L14.34 24.39ZM12.78 23.54L27.62 23.54C27.83 23.54 28.03 23.45 28.17 23.29C28.32 23.13 28.4 22.92 28.4 22.69C28.4 22.63 28.31 16.77 20.2 16.77C12.09 16.77 12 22.63 12 22.69C12 22.92 12.08 23.13 12.22 23.29C12.37 23.45 12.57 23.54 12.78 23.54ZM20.2 18.47C24.91 18.47 26.28 20.61 26.68 21.85L13.72 21.85C14.12 20.61 15.48 18.47 20.2 18.47ZM36.21 15.08L32.19 15.08L31.52 10.72C31.5 10.61 31.47 10.5 31.41 10.4C31.36 10.31 31.29 10.22 31.2 10.16C31.12 10.09 31.02 10.04 30.92 10.02C30.82 9.99 30.72 9.99 30.61 10.01C30.51 10.02 30.41 10.07 30.33 10.13C30.24 10.19 30.16 10.26 30.1 10.36C30.04 10.45 30 10.55 29.98 10.66C29.96 10.77 29.96 10.88 29.97 10.99L30.6 15.08L29.96 15.08C29.86 15.08 29.75 15.11 29.65 15.15C29.56 15.2 29.47 15.26 29.4 15.35C29.32 15.43 29.27 15.53 29.23 15.64C29.19 15.75 29.18 15.86 29.18 15.98L29.96 31.2C29.98 31.41 30.06 31.62 30.21 31.76C30.35 31.91 30.55 32 30.75 32L35.43 32C35.63 32 35.82 31.91 35.97 31.76C36.11 31.62 36.2 31.41 36.21 31.2L36.99 15.98C37 15.86 36.98 15.75 36.95 15.64C36.91 15.53 36.85 15.43 36.78 15.35C36.71 15.27 36.62 15.2 36.52 15.15C36.43 15.11 36.32 15.08 36.21 15.08ZM34.69 30.3L31.48 30.3L30.79 16.77L35.39 16.77L34.69 30.3Z" fill="#FFB577" fill-opacity="1.000000" fill-rule="nonzero"/>
</svg>
