<svg width="14.444336" height="14.444336" viewBox="0 0 14.4443 14.4443" fill="none" xmlns="http://www.w3.org/2000/svg" xmlns:xlink="http://www.w3.org/1999/xlink">
	<desc>
			Created with Pixso.
	</desc>
	<defs>
		<clipPath id="clip0_637">
			<rect id="Instagram / Negative" width="14.444445" height="14.444445" fill="white" fill-opacity="0"/>
		</clipPath>
	</defs>
	<rect id="Instagram / Negative" width="14.444445" height="14.444445" fill="#FFFFFF" fill-opacity="0"/>
	<g clip-path="url(#clip0_637)">
		<path id="Vector" d="M7.22 1.3C9.15 1.3 9.38 1.3 10.13 1.34C10.84 1.37 11.22 1.49 11.47 1.59C11.81 1.72 12.05 1.87 12.3 2.12C12.56 2.38 12.71 2.62 12.84 2.95C12.94 3.21 13.06 3.59 13.09 4.29C13.12 5.06 13.13 5.28 13.13 7.21C13.13 9.14 13.12 9.37 13.09 10.13C13.06 10.83 12.94 11.21 12.84 11.47C12.71 11.8 12.56 12.05 12.3 12.3C12.05 12.55 11.81 12.71 11.47 12.84C11.22 12.94 10.84 13.05 10.13 13.09C9.37 13.12 9.14 13.13 7.22 13.13C5.29 13.13 5.06 13.12 4.3 13.09C3.59 13.05 3.21 12.94 2.96 12.84C2.62 12.71 2.38 12.55 2.13 12.3C1.88 12.04 1.72 11.8 1.59 11.47C1.49 11.21 1.37 10.83 1.34 10.13C1.31 9.37 1.3 9.14 1.3 7.21C1.3 5.28 1.31 5.05 1.34 4.29C1.37 3.59 1.49 3.21 1.59 2.95C1.72 2.62 1.88 2.38 2.13 2.12C2.38 1.87 2.62 1.72 2.96 1.59C3.21 1.49 3.6 1.37 4.3 1.34C5.06 1.3 5.29 1.3 7.22 1.3ZM7.22 0C5.26 0 5.01 0 4.24 0.04C3.47 0.07 2.95 0.2 2.49 0.37C2.01 0.56 1.61 0.8 1.21 1.21C0.8 1.61 0.56 2.01 0.37 2.49C0.2 2.95 0.07 3.47 0.04 4.24C0 5.01 0 5.26 0 7.22C0 9.18 0 9.42 0.04 10.19C0.07 10.96 0.2 11.49 0.37 11.95C0.56 12.42 0.8 12.83 1.21 13.23C1.61 13.63 2.01 13.88 2.49 14.06C2.95 14.24 3.47 14.36 4.24 14.39C5.01 14.43 5.25 14.44 7.21 14.44C9.18 14.44 9.42 14.43 10.19 14.39C10.96 14.36 11.49 14.24 11.94 14.06C12.42 13.88 12.82 13.63 13.22 13.23C13.62 12.83 13.87 12.42 14.05 11.95C14.23 11.49 14.35 10.96 14.39 10.2C14.42 9.43 14.43 9.18 14.43 7.22C14.43 5.26 14.42 5.01 14.39 4.24C14.35 3.48 14.23 2.95 14.05 2.49C13.88 2.01 13.63 1.61 13.23 1.21C12.83 0.81 12.42 0.56 11.95 0.38C11.49 0.2 10.96 0.07 10.2 0.04C9.42 0 9.18 0 7.22 0Z" fill="#FFFFFF" fill-opacity="1.000000" fill-rule="nonzero"/>
		<path id="Vector" d="M7.22 3.51C5.17 3.51 3.51 5.17 3.51 7.22C3.51 9.27 5.17 10.93 7.22 10.93C9.27 10.93 10.93 9.27 10.93 7.22C10.93 5.17 9.27 3.51 7.22 3.51ZM7.22 9.62C5.89 9.62 4.81 8.55 4.81 7.22C4.81 5.89 5.89 4.81 7.22 4.81C8.55 4.81 9.62 5.89 9.62 7.22C9.62 8.55 8.55 9.62 7.22 9.62Z" fill="#FFFFFF" fill-opacity="1.000000" fill-rule="nonzero"/>
		<path id="Vector" d="M11.94 3.36C11.94 3.84 11.55 4.23 11.07 4.23C10.59 4.23 10.21 3.84 10.21 3.36C10.21 2.88 10.6 2.49 11.07 2.49C11.55 2.49 11.94 2.88 11.94 3.36Z" fill="#FFFFFF" fill-opacity="1.000000" fill-rule="nonzero"/>
	</g>
</svg>
