<svg width="14.444336" height="14.444336" viewBox="0 0 14.4443 14.4443" fill="none" xmlns="http://www.w3.org/2000/svg" xmlns:xlink="http://www.w3.org/1999/xlink">
	<desc>
			Created with Pixso.
	</desc>
	<defs>
		<clipPath id="clip0_642">
			<rect id="LinkedIn / Negative" width="14.444445" height="14.444445" fill="white" fill-opacity="0"/>
		</clipPath>
	</defs>
	<rect id="LinkedIn / Negative" width="14.444445" height="14.444445" fill="#FFFFFF" fill-opacity="0"/>
	<g clip-path="url(#clip0_642)">
		<path id="Vector" d="M13.37 0L1.06 0C0.47 0 0 0.46 0 1.04L0 13.4C0 13.97 0.47 14.44 1.06 14.44L13.37 14.44C13.96 14.44 14.44 13.97 14.44 13.4L14.44 1.04C14.44 0.46 13.96 0 13.37 0ZM4.28 12.3L2.14 12.3L2.14 5.41L4.28 5.41L4.28 12.3ZM3.21 4.47C2.52 4.47 1.96 3.91 1.96 3.23C1.96 2.54 2.52 1.99 3.21 1.99C3.89 1.99 4.45 2.54 4.45 3.23C4.45 3.91 3.89 4.47 3.21 4.47ZM12.3 12.3L10.16 12.3L10.16 8.95C10.16 8.15 10.15 7.12 9.05 7.12C7.93 7.12 7.76 8 7.76 8.9L7.76 12.3L5.63 12.3L5.63 5.41L7.68 5.41L7.68 6.35L7.71 6.35C7.99 5.81 8.69 5.24 9.73 5.24C11.9 5.24 12.3 6.66 12.3 8.52L12.3 12.3Z" fill="#FFFFFF" fill-opacity="1.000000" fill-rule="nonzero"/>
	</g>
</svg>
